<svg width="39" height="39" viewBox="0 0 39 39" fill="none" xmlns="http://www.w3.org/2000/svg">
<path d="M7.56862 36.0768C7.83892 35.9566 8.01192 35.7114 8.01192 35.4422C8.01192 35.173 7.83892 34.9278 7.56862 34.8076L1.15692 31.9518C0.908234 31.8413 0.616301 31.8557 0.378431 31.9855C0.14056 32.1153 -2.90853e-07 32.3461 -2.80135e-07 32.5912L-3.11084e-08 38.2883C-2.03908e-08 38.5335 0.145966 38.7643 0.378431 38.8941C0.616302 39.0239 0.908234 39.0335 1.15692 38.9277L7.56862 36.0768ZM1.60022 33.7403L5.42237 35.4374L1.60022 37.1345L1.60022 33.7403ZM23.506 35.4374C23.506 34.4903 23.0843 33.5864 22.3328 32.9182C21.5814 32.2499 20.5596 31.8749 19.5 31.8749C18.4404 31.8749 17.4186 32.2499 16.6672 32.9182C15.9157 33.5864 15.494 34.4951 15.494 35.4374C15.494 36.3797 15.9157 37.2883 16.6672 37.9566C17.4186 38.6249 18.4404 38.9999 19.5 38.9999C20.5596 38.9999 21.5814 38.6249 22.3328 37.9566C23.0843 37.2883 23.506 36.3845 23.506 35.4374ZM17.0943 35.4374C17.0943 34.8701 17.3483 34.3268 17.7971 33.923C18.2458 33.5239 18.8621 33.298 19.5 33.298C20.1379 33.298 20.7488 33.5239 21.2029 33.923C21.6517 34.322 21.9057 34.8701 21.9057 35.4374C21.9057 36.0047 21.6517 36.5479 21.2029 36.9518C20.7542 37.3508 20.1379 37.5768 19.5 37.5768C18.8621 37.5768 18.2512 37.3508 17.7971 36.9518C17.3483 36.5528 17.0943 36.0047 17.0943 35.4374ZM39 38.2883L39 32.5864C39 32.1922 38.6432 31.8749 38.1999 31.8749L31.7882 31.8749C31.3449 31.8749 30.9881 32.1922 30.9881 32.5864L30.9881 38.2883C30.9881 38.6825 31.3449 38.9999 31.7882 38.9999L38.1999 38.9999C38.6432 38.9999 39 38.6825 39 38.2883ZM32.5883 37.5768L32.5883 33.298L37.3998 33.298L37.3998 37.5768L32.5883 37.5768ZM34.1939 26.173L20.3001 26.173L20.3001 30.2115C20.3001 30.6057 19.9433 30.923 19.5 30.923C19.0567 30.923 18.6999 30.6057 18.6999 30.2115L18.6999 26.173L4.80607 26.173L4.80607 30.2115C4.80607 30.6057 4.44927 30.923 4.00596 30.923C3.56266 30.923 3.20585 30.6057 3.20585 30.2115L3.20585 25.4615C3.20585 25.0673 3.56266 24.75 4.00596 24.75L18.6999 24.75L18.6999 20.7115C18.6999 20.3173 19.0567 20 19.5 20C19.9433 20 20.3001 20.3173 20.3001 20.7115L20.3001 24.75L34.994 24.75C35.4373 24.75 35.7941 25.0673 35.7941 25.4615L35.7941 30.2115C35.7941 30.6057 35.4373 30.923 34.994 30.923C34.5507 30.923 34.1939 30.6057 34.1939 30.2115L34.1939 26.173Z" fill="white"/>
<path d="M20.0461 17.6701C18.1362 17.6701 16.4269 17.2919 14.9085 16.527C13.3997 15.7621 12.2061 14.7136 11.3371 13.3729C10.4681 12.0322 10.0288 10.5109 10.0288 8.81785C10.0288 7.12476 10.4681 5.57776 11.3371 4.26282C12.2061 2.94788 13.3902 1.90796 14.8894 1.14306C16.3887 0.378154 18.1075 0 20.0461 0C21.9846 0 23.6653 0.378153 25.1836 1.12587C26.6924 1.87358 27.8765 2.9135 28.7359 4.24563C29.5954 5.57776 30.0251 7.09897 30.0251 8.81785C30.0251 10.5367 29.5954 12.0579 28.7359 13.3901C27.8765 14.7222 26.6924 15.7621 25.1836 16.527C23.6748 17.2919 21.9559 17.6701 20.0461 17.6701ZM20.0461 14.9285C21.2779 14.9285 22.3856 14.6792 23.3692 14.1808C24.3528 13.6823 25.1168 12.9689 25.6706 12.0408C26.2245 11.1126 26.5014 10.0469 26.5014 8.82645C26.5014 7.60604 26.2245 6.51455 25.6706 5.61214C25.1168 4.70973 24.3433 4.00499 23.3692 3.50652C22.3856 3.00804 21.2779 2.7588 20.0461 2.7588C18.8142 2.7588 17.716 3.00804 16.742 3.50652C15.7775 4.00499 15.004 4.70973 14.4215 5.61214C13.839 6.51455 13.5525 7.58885 13.5525 8.82645C13.5525 10.064 13.839 11.1212 14.4215 12.0408C15.004 12.9689 15.7775 13.6823 16.742 14.1808C17.7065 14.6792 18.8142 14.9285 20.0461 14.9285Z" fill="white"/>
</svg>
